<svg id="visual" viewBox="0 0 900 600" width="900" height="600" xmlns="http://www.w3.org/2000/svg" xmlns:xlink="http://www.w3.org/1999/xlink" version="1.1"><rect x="0" y="0" width="900" height="600" fill="#021515"></rect><path d="M0 182L100 137L200 197L300 144L400 209L500 134L600 211L700 231L800 139L900 134L900 0L800 0L700 0L600 0L500 0L400 0L300 0L200 0L100 0L0 0Z" fill="#0c3636"></path><path d="M0 140L100 193L200 152L300 154L400 183L500 184L600 193L700 125L800 218L900 175L900 0L800 0L700 0L600 0L500 0L400 0L300 0L200 0L100 0L0 0Z" fill="#0e4343"></path><path d="M0 176L100 188L200 151L300 153L400 133L500 138L600 121L700 120L800 188L900 160L900 0L800 0L700 0L600 0L500 0L400 0L300 0L200 0L100 0L0 0Z" fill="#105050"></path><path d="M0 131L100 91L200 145L300 104L400 169L500 129L600 133L700 166L800 157L900 182L900 0L800 0L700 0L600 0L500 0L400 0L300 0L200 0L100 0L0 0Z" fill="#125d5d"></path><path d="M0 91L100 157L200 133L300 90L400 117L500 112L600 155L700 106L800 116L900 155L900 0L800 0L700 0L600 0L500 0L400 0L300 0L200 0L100 0L0 0Z" fill="#136b6b"></path><path d="M0 75L100 81L200 87L300 71L400 117L500 85L600 72L700 144L800 130L900 122L900 0L800 0L700 0L600 0L500 0L400 0L300 0L200 0L100 0L0 0Z" fill="#157979"></path><path d="M0 60L100 93L200 65L300 111L400 82L500 62L600 82L700 59L800 57L900 55L900 0L800 0L700 0L600 0L500 0L400 0L300 0L200 0L100 0L0 0Z" fill="#158787"></path><path d="M0 81L100 110L200 71L300 98L400 91L500 73L600 106L700 70L800 81L900 58L900 0L800 0L700 0L600 0L500 0L400 0L300 0L200 0L100 0L0 0Z" fill="#169696"></path><path d="M0 87L100 58L200 40L300 90L400 47L500 64L600 35L700 61L800 81L900 88L900 0L800 0L700 0L600 0L500 0L400 0L300 0L200 0L100 0L0 0Z" fill="#16a5a5"></path><path d="M0 39L100 70L200 67L300 50L400 56L500 47L600 53L700 47L800 43L900 52L900 0L800 0L700 0L600 0L500 0L400 0L300 0L200 0L100 0L0 0Z" fill="#15b4b4"></path><path d="M0 45L100 12L200 51L300 50L400 36L500 31L600 38L700 29L800 34L900 49L900 0L800 0L700 0L600 0L500 0L400 0L300 0L200 0L100 0L0 0Z" fill="#14c3c3"></path><path d="M0 16L100 25L200 11L300 28L400 20L500 9L600 3L700 4L800 3L900 27L900 0L800 0L700 0L600 0L500 0L400 0L300 0L200 0L100 0L0 0Z" fill="#12d3d3"></path></svg>